<svg xmlns="http://www.w3.org/2000/svg" viewBox="0 0 512 512">
    <path d="M408 320H264c-4.42 0-8 3.58-8 8v16c0 4.42 3.58 8 8 8h144c4.42 0 8-3.58 8-8v-16c0-4.42-3.58-8-8-8zM448 0H64C46.33 0 32 14.33 32 32v400c0 8.84 7.16 16 16 16h16v48c0 8.84 7.16 16 16 16h352c8.84 0 16-7.16 16-16v-48h16c8.84 0 16-7.16 16-16V32c0-17.67-14.33-32-32-32zm-32 480H96v-32h320v32zm32-64H64V32h384v384zM128 256h256c17.67 0 32-14.33 32-32V96c0-17.67-14.33-32-32-32H128c-17.67 0-32 14.33-32 32v128c0 17.67 14.33 32 32 32zm0-160h256v128H128V96zm-16 260c11.05 0 20-8.95 20-20s-8.95-20-20-20-20 8.95-20 20 8.95 20 20 20z"/>
</svg>
