<svg version="1.1" id="Ebene_1" xmlns="http://www.w3.org/2000/svg" x="0" y="0" viewBox="0 0 350 350" xml:space="preserve">
    <style>
        .st7{fill:#fff}
    </style>
    <g id="Layer_6">
        <path d="M166.042 322.145c-10.826 2.557-21.315 4.329-31.2 5.217 20.576 11.521 41.618 18.391 61.217 18.288 15.512-.08 31.783-10.081 47.192-26.457-23.781 5.044-50.619 5.828-77.209 2.952zM56.591 80.932c-19.36 16.277-33.801 35.489-39.973 56.758-4.445 15.316-3.014 33.26 2.79 52.073 2.977-23.905 11.512-48.97 23.776-72.625 3.496-13.07 7.98-25.31 13.407-36.206zm201.208-22.538c22.316 12.415 42.584 27.728 58.395 44.56-2.617-19.942-9.18-37.127-20.673-49.412-15.537-16.608-39.762-25.354-67.639-27.568 10.627 8.611 20.671 19.677 29.917 32.42z" fill="#ffed00"/>
        <path d="M316.193 102.953c3.064 23.362.707 50.51-5.506 78.017 4.589 21.18 6.806 41.627 6.166 59.556 19.787-20.365 32.517-42.613 33.123-64.828.676-24.757-12.532-50.122-33.783-72.745zM51.857 281.062c5.844 12.729 13.169 23.825 22.055 32.514 12.503 12.227 34.555 16.158 60.928 13.786-8.943-5.007-17.797-10.886-26.406-17.468-21.871-7.171-41.521-16.932-56.577-28.832zm63.128-250.457c-7.998 2.081-15.563 5.025-22.547 8.921-14.561 8.124-26.579 22.801-35.847 41.406 6.63-5.574 13.838-10.803 21.489-15.653C89.529 51.9 102.017 40.08 114.985 30.605z" fill="#e2007a"/>
        <path d="M78.08 65.278c-7.651 4.85-14.858 10.078-21.489 15.653-5.427 10.896-9.912 23.136-13.406 36.208C52.814 98.568 64.74 80.866 78.08 65.278zm179.719-6.884c24.632 33.94 43.607 79.745 52.889 122.577 6.213-27.508 8.571-54.656 5.506-78.017-15.811-16.834-36.078-32.147-58.395-44.56zm-149.364 251.5c8.609 6.582 17.462 12.461 26.406 17.468 9.885-.889 20.375-2.66 31.2-5.217-19.804-2.142-39.462-6.304-57.606-12.251z" fill="#e20000"/>
        <path d="M274.968 274.555c-9.696 17.354-20.477 32.695-31.718 44.639 21.265-4.508 40.085-12.413 54.066-24.17 12.564-10.567 18.67-30.222 19.537-54.499-11.807 12.152-26.126 23.631-41.885 34.03zM174.343 28.846c18.439-3.156 36.657-4.212 53.539-2.872-12.925-10.471-26.71-17.313-40.974-19.101-23.325-2.922-48.412 6.553-71.923 23.731 18.095-4.708 38.423-4.984 59.358-1.758zM19.408 189.763c-2.697 21.655-.836 42.359 6.953 60.199 5.025 11.508 13.903 21.936 25.496 31.1-7.051-15.354-11.932-33.093-14.759-51.889-7.649-13.17-13.703-26.493-17.69-39.41z" fill="#009ee0"/>
        <path d="M174.343 28.846c28.046 4.323 57.173 14.925 83.456 29.548-9.247-12.742-19.29-23.808-29.917-32.419-16.882-1.341-35.1-.285-53.539 2.871zM43.185 117.139c-12.264 23.654-20.799 48.719-23.776 72.624 3.986 12.917 10.04 26.239 17.691 39.409-5.508-36.628-3.213-77.253 6.085-112.033zm122.857 205.006c26.591 2.876 53.429 2.092 77.209-2.951 11.241-11.943 22.021-27.285 31.718-44.639-33.262 21.949-72.934 39.089-108.927 47.59z" fill="#009300"/>
        <path d="M310.687 180.97c-7.363 32.598-20.136 65.694-35.719 93.585 15.759-10.4 30.078-21.878 41.885-34.03.64-17.928-1.577-38.374-6.166-59.555zM78.08 65.278c28.292-17.934 62.639-30.677 96.263-36.432-20.935-3.226-41.263-2.95-59.358 1.758C102.017 40.08 89.529 51.9 78.08 65.278zM37.1 229.173c2.827 18.797 7.707 36.536 14.759 51.889 15.055 11.9 34.705 21.661 56.577 28.832-28.304-21.64-53.938-50.77-71.336-80.721z" fill="#00006b"/>
        <path d="M174.343 28.846c-33.624 5.757-67.971 18.499-96.263 36.432-13.339 15.588-25.266 33.29-34.895 51.86-9.298 34.781-11.593 75.406-6.085 112.033 17.399 29.952 43.032 59.081 71.335 80.722 18.143 5.948 37.802 10.109 57.606 12.251 35.993-8.501 75.666-25.641 108.926-47.59 15.583-27.892 28.356-60.986 35.719-93.585-9.28-42.833-28.256-88.638-52.889-122.577-26.282-14.621-55.409-25.223-83.454-29.546z" fill="#000001"/>
    </g>
    <g id="Layer_5">
        <path class="st7" d="M212.157 139.629h-89.502c0-11.336.396-18.394 1.193-21.182 1.79-5.767 6.363-8.652 13.724-8.652h74.584c8.153 0 15.163-2.932 21.033-8.802 5.864-5.864 8.801-12.874 8.801-21.031H122.654c-8.157 0-15.168 2.936-21.032 8.801-5.869 5.868-8.802 12.88-8.802 21.032v29.834c0 8.158 2.932 15.169 8.802 21.033 5.864 5.869 12.875 8.801 21.032 8.801h59.668c11.337 0 18.394.396 21.182 1.194 5.767 1.789 8.652 6.363 8.652 13.724v14.917c-8.158 0-15.168 2.933-21.033 8.8-5.868 5.865-8.801 12.876-8.801 21.033h29.834c8.153 0 15.163-2.937 21.033-8.801 5.864-5.869 8.801-12.88 8.801-21.032v-29.835c0-8.153-2.937-15.163-8.801-21.032-5.869-5.864-12.88-8.802-21.032-8.802z"/>
        <path class="st7" d="M233.19 247.876c-5.87-5.864-12.88-8.801-21.033-8.801h-74.584c-7.361 0-11.933-2.88-13.724-8.652-.745-2.599-1.14-8.934-1.189-18.998-.003-.709-.005-7.627-.005-8.374 0-8.153-2.936-15.163-8.801-21.032-5.869-5.865-12.88-8.801-21.033-8.801v65.858c0 8.157 2.932 15.168 8.802 21.032 5.864 5.869 12.875 8.801 21.032 8.801h119.336c0-8.152-2.937-15.164-8.801-21.033z"/>
    </g>
</svg>
