<svg version="1.0" xmlns="http://www.w3.org/2000/svg" width="933.333" height="933.333" viewBox="0 0 700 700">
    <path d="M171.9.4c-.2.2-2.4.6-4.9.9C131.7 5.8 96.2 33.9 81.7 69c-3.5 8.5-6.4 19.8-7.3 28.5-1 9.5-1.1 127.5-.1 135 1.4 10.8 1.6 11.9 3.7 19.5 4.9 17.4 16 35.2 30.9 49.2 17.2 16.3 33.7 24.5 59.1 29.4 1.9.4 62.9.8 135.5.9 117.3.2 156.1.7 164.5 2 1.4.2 4.5.6 7 .9 7.2.9 8.9 1.4 15.4 4.4 11.4 5.3 18.4 13.6 22.6 26.7 2.1 6.6 2.3 9 2.6 41.7l.4 34.8-3.3.1c-3 0-4.7.2-14.2 1.3-5.1.6-18.3 4.1-23.8 6.3-5.8 2.4-17.1 8.8-23.7 13.6-7.6 5.6-20.6 18.8-26.4 27-11.5 16.3-19.3 39.6-19.1 57.7v4.5l59.5-.1c32.7 0 62.1-.3 65.2-.7 42.4-4.9 81.8-39.6 92.4-81.4 1.4-5.4 2.7-12.5 3.1-15.8.8-8.6.7-130-.2-136-1.6-11.4-1.7-12.2-3.8-19.1-1.8-6.1-7.6-19.4-9.4-21.5-.7-.8-1.3-1.9-1.3-2.3 0-2.6-15-20.1-24.5-28.7-13.5-12-36.6-22.6-53.5-24.5-3-.4-6.4-.8-7.5-1-1.1-.1-78.3-.3-171.7-.3l-169.6-.1.3-22.8c.4-25.1.9-34.4 2.9-49.9 2.2-16.8 16.3-32.1 33.1-35.7 1.7-.3 4.1-.9 5.5-1.2 1.4-.4 69.8-.7 152-.9 109.4-.1 151.1-.5 155.5-1.3 3.3-.7 7.1-1.4 8.5-1.7 5.5-1 17.7-5.7 24.7-9.5 30-16.1 53.7-48.3 57.9-78.5.3-2.8.8-5.7.9-6.6.2-.9.5-4.1.6-7l.3-5.4-227-.2C274.5.1 172.1.2 171.9.4z"/>
    <path d="M73.9 345.9c-.5 3.1-.2 246.5.2 252.1 1 10.5 1.7 14.7 3.8 22.2 10.3 35.8 41.5 66.2 78.6 76.5l10 2.8 229.8.3c185.2.2 229.7 0 229.8-1 .4-5.3-1-17.7-3.1-26-7.6-30.6-31.8-59.5-61.6-73.4-9.2-4.4-14.8-6.1-27.4-8.6-3.7-.7-53.1-1.1-154-1.3-81.7-.1-150.6-.5-153.2-.9-23.9-3.2-38-18.9-40.3-44.6-.4-4.7-.9-9.9-1.1-11.5-.2-1.7-.5-21-.8-43-.6-48-1.2-54.7-6-69-8.6-25.1-29.6-49.5-53.8-62.4-6.1-3.3-24.7-10.6-25.6-10.1-.1.1-3.3-.3-7-.9-8.2-1.3-18.2-1.9-18.3-1.2z"/>
</svg>
