<?xml version="1.0" encoding="utf-8"?>
<!-- Generator: Adobe Illustrator 25.1.0, SVG Export Plug-In . SVG Version: 6.00 Build 0)  -->
<svg version="1.1" id="Ebene_1" xmlns="http://www.w3.org/2000/svg" xmlns:xlink="http://www.w3.org/1999/xlink" x="0px" y="0px"
	 viewBox="0 0 350 350" style="enable-background:new 0 0 350 350;" xml:space="preserve">
<style type="text/css">
	.st0{fill:#FFED00;}
	.st1{fill:#E2007A;}
	.st2{fill:#E20000;}
	.st3{fill:#009EE0;}
	.st4{fill:#009300;}
	.st5{fill:#00006B;}
	.st6{fill:#000001;}
	.st7{fill:#FFFFFF;}
</style>
<g id="Layer_6">
	<path class="st0" d="M166.042,322.145c-10.826,2.557-21.315,4.329-31.2,5.217c20.576,11.521,41.618,18.391,61.217,18.288
		c15.512-0.08,31.783-10.081,47.192-26.457C219.47,324.237,192.632,325.021,166.042,322.145z"/>
	<path class="st0" d="M56.591,80.932c-19.36,16.277-33.801,35.489-39.973,56.758c-4.445,15.316-3.014,33.26,2.79,52.073
		c2.977-23.905,11.512-48.97,23.776-72.625C46.68,104.068,51.164,91.828,56.591,80.932z"/>
	<path class="st0" d="M257.799,58.394c22.316,12.415,42.584,27.728,58.395,44.56c-2.617-19.942-9.18-37.127-20.673-49.412
		c-15.537-16.608-39.762-25.354-67.639-27.568C238.509,34.585,248.553,45.651,257.799,58.394z"/>
	<path class="st1" d="M316.193,102.953c3.064,23.362,0.707,50.51-5.506,78.017c4.589,21.18,6.806,41.627,6.166,59.556
		c19.787-20.365,32.517-42.613,33.123-64.828C350.652,150.941,337.444,125.576,316.193,102.953z"/>
	<path class="st1" d="M51.857,281.062c5.844,12.729,13.169,23.825,22.055,32.514c12.503,12.227,34.555,16.158,60.928,13.786
		c-8.943-5.007-17.797-10.886-26.406-17.468C86.563,302.723,66.913,292.962,51.857,281.062z"/>
	<path class="st1" d="M114.985,30.605c-7.998,2.081-15.563,5.025-22.547,8.921C77.877,47.65,65.859,62.327,56.591,80.932
		c6.63-5.574,13.838-10.803,21.489-15.653C89.529,51.9,102.017,40.08,114.985,30.605z"/>
	<path class="st2" d="M78.08,65.278c-7.651,4.85-14.858,10.078-21.489,15.653c-5.427,10.896-9.912,23.136-13.406,36.208
		C52.814,98.568,64.74,80.866,78.08,65.278z"/>
	<path class="st2" d="M257.799,58.394c24.632,33.94,43.607,79.745,52.889,122.577c6.213-27.508,8.571-54.656,5.506-78.017
		C300.383,86.12,280.116,70.807,257.799,58.394z"/>
	<path class="st2" d="M108.435,309.894c8.609,6.582,17.462,12.461,26.406,17.468c9.885-0.889,20.375-2.66,31.2-5.217
		C146.237,320.003,126.579,315.841,108.435,309.894z"/>
	<path class="st3" d="M274.968,274.555c-9.696,17.354-20.477,32.695-31.718,44.639c21.265-4.508,40.085-12.413,54.066-24.17
		c12.564-10.567,18.67-30.222,19.537-54.499C305.046,252.677,290.727,264.156,274.968,274.555z"/>
	<path class="st3" d="M174.343,28.846c18.439-3.156,36.657-4.212,53.539-2.872c-12.925-10.471-26.71-17.313-40.974-19.101
		c-23.325-2.922-48.412,6.553-71.923,23.731C133.08,25.896,153.408,25.62,174.343,28.846z"/>
	<path class="st3" d="M19.408,189.763c-2.697,21.655-0.836,42.359,6.953,60.199c5.025,11.508,13.903,21.936,25.496,31.1
		c-7.051-15.354-11.932-33.093-14.759-51.889C29.449,216.003,23.395,202.68,19.408,189.763z"/>
	<path class="st4" d="M174.343,28.846c28.046,4.323,57.173,14.925,83.456,29.548c-9.247-12.742-19.29-23.808-29.917-32.419
		C211,24.634,192.782,25.69,174.343,28.846z"/>
	<path class="st4" d="M43.185,117.139c-12.264,23.654-20.799,48.719-23.776,72.624c3.986,12.917,10.04,26.239,17.691,39.409
		C31.592,192.544,33.887,151.919,43.185,117.139z"/>
	<path class="st4" d="M166.042,322.145c26.591,2.876,53.429,2.092,77.209-2.951c11.241-11.943,22.021-27.285,31.718-44.639
		C241.707,296.504,202.035,313.644,166.042,322.145z"/>
	<path class="st5" d="M310.687,180.97c-7.363,32.598-20.136,65.694-35.719,93.585c15.759-10.4,30.078-21.878,41.885-34.03
		C317.493,222.597,315.276,202.151,310.687,180.97z"/>
	<path class="st5" d="M78.08,65.278c28.292-17.934,62.639-30.677,96.263-36.432c-20.935-3.226-41.263-2.95-59.358,1.758
		C102.017,40.08,89.529,51.9,78.08,65.278z"/>
	<path class="st5" d="M37.1,229.173c2.827,18.797,7.707,36.536,14.759,51.889c15.055,11.9,34.705,21.661,56.577,28.832
		C80.132,288.254,54.498,259.124,37.1,229.173z"/>
	<path class="st6" d="M174.343,28.846c-33.624,5.757-67.971,18.499-96.263,36.432c-13.339,15.588-25.266,33.29-34.895,51.86
		c-9.298,34.781-11.593,75.406-6.085,112.033c17.399,29.952,43.032,59.081,71.335,80.722c18.143,5.948,37.802,10.109,57.606,12.251
		c35.993-8.501,75.666-25.641,108.926-47.59c15.583-27.892,28.356-60.986,35.719-93.585c-9.28-42.833-28.256-88.638-52.889-122.577
		C231.515,43.771,202.388,33.169,174.343,28.846z"/>
</g>
<g id="Layer_5">
	<g>
		<path class="st7" d="M212.157,139.629h-89.502c0-11.336,0.396-18.394,1.193-21.182c1.79-5.767,6.363-8.652,13.724-8.652h74.584
			c8.153,0,15.163-2.932,21.033-8.802c5.864-5.864,8.801-12.874,8.801-21.031h-29.834h-89.502c-8.157,0-15.168,2.936-21.032,8.801
			c-5.869,5.868-8.802,12.88-8.802,21.032v29.834c0,8.158,2.932,15.169,8.802,21.033c5.864,5.869,12.875,8.801,21.032,8.801h59.668
			c11.337,0,18.394,0.396,21.182,1.194c5.767,1.789,8.652,6.363,8.652,13.724v14.917c-8.158,0-15.168,2.933-21.033,8.8
			c-5.868,5.865-8.801,12.876-8.801,21.033h29.834c8.153,0,15.163-2.937,21.033-8.801c5.864-5.869,8.801-12.88,8.801-21.032v-29.835
			c0-8.153-2.937-15.163-8.801-21.032C227.32,142.567,220.309,139.629,212.157,139.629z"/>
		<path class="st7" d="M233.19,247.876c-5.87-5.864-12.88-8.801-21.033-8.801h-74.584c-7.361,0-11.933-2.88-13.724-8.652
			c-0.745-2.599-1.14-8.934-1.189-18.998c-0.003-0.709-0.005-7.627-0.005-8.374c0-8.153-2.936-15.163-8.801-21.032
			c-5.869-5.865-12.88-8.801-21.033-8.801v29.834v36.024c0,8.157,2.932,15.168,8.802,21.032c5.864,5.869,12.875,8.801,21.032,8.801
			h89.502h29.834C241.991,260.757,239.054,253.745,233.19,247.876z"/>
	</g>
</g>
</svg>
