<?xml version="1.0" standalone="no"?>
<!DOCTYPE svg PUBLIC "-//W3C//DTD SVG 20010904//EN"
 "http://www.w3.org/TR/2001/REC-SVG-20010904/DTD/svg10.dtd">
<svg version="1.0" xmlns="http://www.w3.org/2000/svg"
 width="700.000000pt" height="700.000000pt" viewBox="0 0 700.000000 700.000000"
 preserveAspectRatio="xMidYMid meet">
<metadata>
Created by potrace 1.11, written by Peter Selinger 2001-2013
</metadata>
<g transform="translate(0.000000,700.000000) scale(0.100000,-0.100000)"
fill="#000000" stroke="none">
<path d="M1719 6996 c-2 -2 -24 -6 -49 -9 -353 -45 -708 -326 -853 -677 -35
-85 -64 -198 -73 -285 -10 -95 -11 -1275 -1 -1350 14 -108 16 -119 37 -195 49
-174 160 -352 309 -492 172 -163 337 -245 591 -294 19 -4 629 -8 1355 -9 1173
-2 1561 -7 1645 -20 14 -2 45 -6 70 -9 72 -9 89 -14 154 -44 114 -53 184 -136
226 -267 21 -66 23 -90 26 -417 l4 -348 -33 -1 c-30 0 -47 -2 -142 -13 -51 -6
-183 -41 -238 -63 -58 -24 -171 -88 -237 -136 -76 -56 -206 -188 -264 -270
-115 -163 -193 -396 -191 -577 l0 -45 595 1 c327 0 621 3 652 7 424 49 818
396 924 814 14 54 27 125 31 158 8 86 7 1300 -2 1360 -16 114 -17 122 -38 191
-18 61 -76 194 -94 215 -7 8 -13 19 -13 23 0 26 -150 201 -245 287 -135 120
-366 226 -535 245 -30 4 -64 8 -75 10 -11 1 -783 3 -1717 3 l-1696 1 3 228 c4
251 9 344 29 499 22 168 163 321 331 357 17 3 41 9 55 12 14 4 698 7 1520 9
1094 1 1511 5 1555 13 33 7 71 14 85 17 55 10 177 57 247 95 300 161 537 483
579 785 3 28 8 57 9 66 2 9 5 41 6 70 l3 54 -2270 2 c-1249 2 -2273 1 -2275
-1z"/>
<path d="M739 3541 c-5 -31 -2 -2465 2 -2521 10 -105 17 -147 38 -222 103
-358 415 -662 786 -765 l100 -28 2298 -3 c1852 -2 2297 0 2298 10 4 53 -10
177 -31 260 -76 306 -318 595 -616 734 -92 44 -148 61 -274 86 -37 7 -531 11
-1540 13 -817 1 -1506 5 -1532 9 -239 32 -380 189 -403 446 -4 47 -9 99 -11
115 -2 17 -5 210 -8 430 -6 480 -12 547 -60 690 -86 251 -296 495 -538 624
-61 33 -247 106 -256 101 -1 -1 -33 3 -70 9 -82 13 -182 19 -183 12z"/>
</g>
</svg>
