<?xml version="1.0" encoding="utf-8"?>
<!-- Generator: Adobe Illustrator 16.0.3, SVG Export Plug-In . SVG Version: 6.00 Build 0)  -->
<!DOCTYPE svg PUBLIC "-//W3C//DTD SVG 1.1//EN" "http://www.w3.org/Graphics/SVG/1.1/DTD/svg11.dtd">
<svg version="1.1" xmlns="http://www.w3.org/2000/svg" xmlns:xlink="http://www.w3.org/1999/xlink" x="0px" y="0px" width="350px"
	 height="350px" viewBox="0 0 350 350" enable-background="new 0 0 350 350" xml:space="preserve">
<g id="Layer_6">
	<path fill="#FFED00" d="M158.534,325.752c-11.167,2.638-21.987,4.465-32.184,5.382c21.225,11.884,42.93,18.971,63.147,18.865
		c16.001-0.083,32.785-10.399,48.68-27.291C213.647,327.91,185.963,328.719,158.534,325.752z"/>
	<path fill="#FFED00" d="M45.633,76.935C25.663,93.725,10.766,113.543,4.4,135.482c-4.585,15.799-3.109,34.309,2.878,53.715
		c3.071-24.659,11.875-50.514,24.526-74.914C35.409,100.8,40.035,88.174,45.633,76.935z"/>
	<path fill="#FFED00" d="M253.184,53.686c23.02,12.806,43.926,28.602,60.236,45.965c-2.699-20.571-9.469-38.297-21.325-50.97
		c-16.027-17.132-41.016-26.153-69.771-28.437C233.286,29.127,243.646,40.542,253.184,53.686z"/>
	<path fill="#E2007A" d="M313.419,99.65c3.161,24.098,0.729,52.102-5.68,80.477c4.734,21.848,7.021,42.939,6.36,61.433
		c20.411-21.007,33.542-43.956,34.167-66.872C348.964,149.151,335.34,122.986,313.419,99.65z"/>
	<path fill="#E2007A" d="M40.75,283.374c6.028,13.13,13.584,24.576,22.75,33.539c12.897,12.612,35.644,16.667,62.849,14.221
		c-9.225-5.165-18.358-11.229-27.238-18.019C76.55,305.718,56.28,295.649,40.75,283.374z"/>
	<path fill="#E2007A" d="M105.868,25.021c-8.25,2.147-16.054,5.183-23.258,9.202c-15.02,8.381-27.417,23.52-36.977,42.712
		c6.839-5.75,14.274-11.144,22.166-16.146C79.609,46.988,92.491,34.795,105.868,25.021z"/>
	<path fill="#E20000" d="M67.799,60.788c-7.892,5.003-15.326,10.396-22.166,16.146c-5.598,11.239-10.224,23.865-13.829,37.349
		C41.737,95.127,54.039,76.867,67.799,60.788z"/>
	<path fill="#E20000" d="M253.184,53.686c25.408,35.01,44.982,82.259,54.556,126.441c6.409-28.375,8.841-56.379,5.68-80.477
		C297.11,82.287,276.204,66.491,253.184,53.686z"/>
	<path fill="#E20000" d="M99.111,313.115c8.88,6.789,18.013,12.854,27.238,18.019c10.197-0.917,21.017-2.744,32.184-5.382
		C138.105,323.543,117.827,319.25,99.111,313.115z"/>
	<path fill="#009EE0" d="M270.894,276.662c-10.002,17.901-21.123,33.726-32.718,46.046c21.935-4.65,41.349-12.804,55.77-24.932
		c12.96-10.9,19.259-31.175,20.153-56.217C301.92,254.094,287.15,265.935,270.894,276.662z"/>
	<path fill="#009EE0" d="M167.097,23.207c19.02-3.256,37.813-4.345,55.227-2.963C208.992,9.443,194.772,2.385,180.058,0.541
		c-24.06-3.014-49.938,6.76-74.19,24.479C124.533,20.164,145.502,19.879,167.097,23.207z"/>
	<path fill="#009EE0" d="M7.278,189.197c-2.782,22.338-0.862,43.694,7.172,62.097c5.183,11.871,14.341,22.628,26.3,32.08
		c-7.273-15.838-12.308-34.136-15.224-53.525C17.635,216.264,11.39,202.521,7.278,189.197z"/>
	<path fill="#009300" d="M167.097,23.207c28.93,4.459,58.975,15.395,86.087,30.479c-9.538-13.144-19.898-24.559-30.86-33.441
		C204.91,18.862,186.117,19.951,167.097,23.207z"/>
	<path fill="#009300" d="M31.804,114.283c-12.651,24.4-21.455,50.255-24.526,74.914c4.112,13.324,10.357,27.066,18.249,40.651
		C19.846,192.066,22.213,150.16,31.804,114.283z"/>
	<path fill="#009300" d="M158.534,325.752c27.429,2.967,55.113,2.158,79.643-3.044c11.595-12.32,22.715-28.145,32.718-46.046
		C236.585,299.303,195.662,316.983,158.534,325.752z"/>
	<path fill="#00006B" d="M307.739,180.127c-7.595,33.626-20.771,67.765-36.845,96.535c16.256-10.728,31.026-22.568,43.205-35.103
		C314.76,223.066,312.473,201.975,307.739,180.127z"/>
	<path fill="#00006B" d="M67.799,60.788c29.184-18.499,64.614-31.644,99.298-37.581c-21.595-3.328-42.564-3.043-61.229,1.813
		C92.491,34.795,79.609,46.988,67.799,60.788z"/>
	<path fill="#00006B" d="M25.527,229.849c2.916,19.39,7.95,37.688,15.224,53.525c15.53,12.275,35.799,22.344,58.361,29.741
		C69.916,290.793,43.474,260.744,25.527,229.849z"/>
	<path fill="#000001" d="M167.097,23.207c-34.684,5.938-70.114,19.082-99.298,37.581c-13.76,16.079-26.062,34.339-35.995,53.495
		c-9.591,35.877-11.958,77.783-6.277,115.565c17.947,30.896,44.389,60.944,73.584,83.267c18.715,6.135,38.994,10.428,59.422,12.637
		c37.128-8.769,78.051-26.449,112.36-49.09c16.074-28.771,29.25-62.909,36.845-96.535c-9.573-44.183-29.147-91.432-54.556-126.441
		C226.071,38.602,196.026,27.666,167.097,23.207z"/>
</g>
<g id="Layer_5">
	<g>
		<path fill="#FFFFFF" d="M202.861,136.627h-94.429c0-11.96,0.418-19.406,1.259-22.348c1.889-6.084,6.713-9.128,14.479-9.128h78.69
			c8.602,0,15.998-3.093,22.191-9.286c6.187-6.187,9.285-13.583,9.285-22.189h-31.476h-94.429c-8.606,0-16.003,3.098-22.19,9.285
			c-6.192,6.191-9.286,13.589-9.286,22.19v31.476c0,8.607,3.093,16.004,9.286,22.191c6.187,6.192,13.584,9.285,22.19,9.285h62.953
			c11.961,0,19.407,0.418,22.348,1.26c6.084,1.888,9.128,6.713,9.128,14.479v15.738c-8.607,0-16.003,3.094-22.191,9.284
			c-6.191,6.188-9.285,13.585-9.285,22.191h31.476c8.602,0,15.998-3.099,22.191-9.285c6.187-6.192,9.285-13.589,9.285-22.19v-31.477
			c0-8.602-3.099-15.998-9.285-22.19C218.859,139.727,211.462,136.627,202.861,136.627z"/>
		<path fill="#FFFFFF" d="M225.052,250.833c-6.193-6.187-13.589-9.285-22.191-9.285h-78.69c-7.766,0-12.59-3.039-14.479-9.128
			c-0.786-2.742-1.203-9.426-1.254-20.044c-0.003-0.748-0.005-8.047-0.005-8.835c0-8.602-3.098-15.998-9.285-22.19
			c-6.192-6.188-13.589-9.285-22.191-9.285v31.476v38.007c0,8.606,3.093,16.003,9.286,22.19c6.187,6.192,13.584,9.285,22.19,9.285
			h94.429h31.476C234.337,264.422,231.238,257.025,225.052,250.833z"/>
	</g>
</g>
</svg>
