<?xml version="1.0" encoding="utf-8"?>
<!-- Generator: Adobe Illustrator 27.2.0, SVG Export Plug-In . SVG Version: 6.00 Build 0)  -->
<svg version="1.1" id="Ebene_1" xmlns="http://www.w3.org/2000/svg" xmlns:xlink="http://www.w3.org/1999/xlink" x="0px" y="0px"
	 viewBox="0 0 512 512" enable-background="new 0 0 512 512" xml:space="preserve">
<path d="M408,320H264c-4.42,0-8,3.58-8,8v16c0,4.42,3.58,8,8,8h144c4.42,0,8-3.58,8-8v-16C416,323.58,412.42,320,408,320z M448,0H64
	C46.33,0,32,14.33,32,32v400c0,8.84,7.16,16,16,16h16v48c0,8.84,7.16,16,16,16h352c8.84,0,16-7.16,16-16v-48h16
	c8.84,0,16-7.16,16-16V32C480,14.33,465.67,0,448,0z M416,480H96v-32h320V480z M448,416H64V32h384V416z M128,256h256
	c17.67,0,32-14.33,32-32V96c0-17.67-14.33-32-32-32H128c-17.67,0-32,14.33-32,32v128C96,241.67,110.33,256,128,256z M128,96h256v128
	H128V96z M112,356c11.05,0,20-8.95,20-20s-8.95-20-20-20s-20,8.95-20,20S100.95,356,112,356z"/>
</svg>
