<svg xmlns="http://www.w3.org/2000/svg" width="350" height="350" viewBox="0 0 350 350">
    <path fill="#FFED00" d="M158.534 325.752c-11.167 2.638-21.987 4.465-32.184 5.382 21.225 11.884 42.93 18.971 63.147 18.865 16.001-.083 32.785-10.399 48.68-27.291-24.53 5.202-52.214 6.011-79.643 3.044zM45.633 76.935c-19.97 16.79-34.867 36.608-41.233 58.547-4.585 15.799-3.109 34.309 2.878 53.715 3.071-24.659 11.875-50.514 24.526-74.914 3.605-13.483 8.231-26.109 13.829-37.348zm207.551-23.249c23.02 12.806 43.926 28.602 60.236 45.965-2.699-20.571-9.469-38.297-21.325-50.97-16.027-17.132-41.016-26.153-69.771-28.437 10.962 8.883 21.322 20.298 30.86 33.442z"/>
    <path fill="#E2007A" d="M313.419 99.65c3.161 24.098.729 52.102-5.68 80.477 4.734 21.848 7.021 42.939 6.36 61.433 20.411-21.007 33.542-43.956 34.167-66.872.698-25.537-12.926-51.702-34.847-75.038zM40.75 283.374c6.028 13.13 13.584 24.576 22.75 33.539 12.897 12.612 35.644 16.667 62.849 14.221-9.225-5.165-18.358-11.229-27.238-18.019-22.561-7.397-42.831-17.466-58.361-29.741zm65.118-258.353c-8.25 2.147-16.054 5.183-23.258 9.202-15.02 8.381-27.417 23.52-36.977 42.712 6.839-5.75 14.274-11.144 22.166-16.146 11.81-13.801 24.692-25.994 38.069-35.768z"/>
    <path fill="#E20000" d="M67.799 60.788c-7.892 5.003-15.326 10.396-22.166 16.146-5.598 11.239-10.224 23.865-13.829 37.349 9.933-19.156 22.235-37.416 35.995-53.495zm185.385-7.102c25.408 35.01 44.982 82.259 54.556 126.441 6.409-28.375 8.841-56.379 5.68-80.477-16.31-17.363-37.216-33.159-60.236-45.964zM99.111 313.115c8.88 6.789 18.013 12.854 27.238 18.019 10.197-.917 21.017-2.744 32.184-5.382-20.428-2.209-40.706-6.502-59.422-12.637z"/>
    <path fill="#009EE0" d="M270.894 276.662c-10.002 17.901-21.123 33.726-32.718 46.046 21.935-4.65 41.349-12.804 55.77-24.932 12.96-10.9 19.259-31.175 20.153-56.217-12.179 12.535-26.949 24.376-43.205 35.103zM167.097 23.207c19.02-3.256 37.813-4.345 55.227-2.963C208.992 9.443 194.772 2.385 180.058.541c-24.06-3.014-49.938 6.76-74.19 24.479 18.665-4.856 39.634-5.141 61.229-1.813zM7.278 189.197c-2.782 22.338-.862 43.694 7.172 62.097 5.183 11.871 14.341 22.628 26.3 32.08-7.273-15.838-12.308-34.136-15.224-53.525-7.891-13.585-14.136-27.328-18.248-40.652z"/>
    <path fill="#009300" d="M167.097 23.207c28.93 4.459 58.975 15.395 86.087 30.479-9.538-13.144-19.898-24.559-30.86-33.441-17.414-1.383-36.207-.294-55.227 2.962zM31.804 114.283c-12.651 24.4-21.455 50.255-24.526 74.914 4.112 13.324 10.357 27.066 18.249 40.651-5.681-37.782-3.314-79.688 6.277-115.565zm126.73 211.469c27.429 2.967 55.113 2.158 79.643-3.044 11.595-12.32 22.715-28.145 32.718-46.046-34.31 22.641-75.233 40.321-112.361 49.09z"/>
    <path fill="#00006B" d="M307.739 180.127c-7.595 33.626-20.771 67.765-36.845 96.535 16.256-10.728 31.026-22.568 43.205-35.103.661-18.493-1.626-39.584-6.36-61.432zM67.799 60.788c29.184-18.499 64.614-31.644 99.298-37.581-21.595-3.328-42.564-3.043-61.229 1.813-13.377 9.775-26.259 21.968-38.069 35.768zM25.527 229.849c2.916 19.39 7.95 37.688 15.224 53.525 15.53 12.275 35.799 22.344 58.361 29.741-29.196-22.322-55.638-52.371-73.585-83.266z"/>
    <path fill="#000001" d="M167.097 23.207c-34.684 5.938-70.114 19.082-99.298 37.581-13.76 16.079-26.062 34.339-35.995 53.495-9.591 35.877-11.958 77.783-6.277 115.565 17.947 30.896 44.389 60.944 73.584 83.267 18.715 6.135 38.994 10.428 59.422 12.637 37.128-8.769 78.051-26.449 112.36-49.09 16.074-28.771 29.25-62.909 36.845-96.535-9.573-44.183-29.147-91.432-54.556-126.441-27.111-15.084-57.156-26.02-86.085-30.479z"/>
    <g fill="#FFF">
        <path d="M202.861 136.627h-94.429c0-11.96.418-19.406 1.259-22.348 1.889-6.084 6.713-9.128 14.479-9.128h78.69c8.602 0 15.998-3.093 22.191-9.286 6.187-6.187 9.285-13.583 9.285-22.189H108.431c-8.606 0-16.003 3.098-22.19 9.285-6.192 6.191-9.286 13.589-9.286 22.19v31.476c0 8.607 3.093 16.004 9.286 22.191 6.187 6.192 13.584 9.285 22.19 9.285h62.953c11.961 0 19.407.418 22.348 1.26 6.084 1.888 9.128 6.713 9.128 14.479v15.738c-8.607 0-16.003 3.094-22.191 9.284-6.191 6.188-9.285 13.585-9.285 22.191h31.476c8.602 0 15.998-3.099 22.191-9.285 6.187-6.192 9.285-13.589 9.285-22.19v-31.477c0-8.602-3.099-15.998-9.285-22.19-6.192-6.186-13.589-9.286-22.19-9.286z"/>
        <path d="M225.052 250.833c-6.193-6.187-13.589-9.285-22.191-9.285h-78.69c-7.766 0-12.59-3.039-14.479-9.128-.786-2.742-1.203-9.426-1.254-20.044-.003-.748-.005-8.047-.005-8.835 0-8.602-3.098-15.998-9.285-22.19-6.192-6.188-13.589-9.285-22.191-9.285v69.483c0 8.606 3.093 16.003 9.286 22.19 6.187 6.192 13.584 9.285 22.19 9.285h125.905c-.001-8.602-3.1-15.999-9.286-22.191z"/>
    </g>
</svg>
